<svg width="22" height="25" viewBox="0 0 22 25" fill="none" xmlns="http://www.w3.org/2000/svg">
<path d="M1.9775 21.7399L0 0H21.2345L19.3041 21.7399L10.6408 24.1975" fill="#264DE4"/>
<path d="M10.3701 1.97534V22.2222L17.5682 20.3139L19.259 1.97534" fill="#2965F1"/>
<path d="M3.95044 4.44446H10.3702V7.03705H4.17649L3.95044 4.44446ZM4.40253 9.72223H10.3702V12.3611H4.62858L4.40253 9.72223ZM4.76421 13.6574H7.29594L7.47678 15.7407L10.3702 16.5278V19.2593L5.08068 17.7778" fill="#EBEBEB"/>
<path d="M10.3701 9.72223V12.3611H13.7534L13.4101 15.7407L10.3701 16.5278V19.2593L16.0088 17.7778L17.2837 4.44446H10.3701V7.03705H14.2927L14.023 9.72223H10.3701Z" fill="white"/>
</svg>
