<svg width="22" height="25" viewBox="0 0 22 25" fill="none" xmlns="http://www.w3.org/2000/svg">
<path d="M2.35517 21.7399L0.41748 0H21.7321L19.7944 21.7399L11.0511 24.1975" fill="#E34F26"/>
<path d="M11.0986 22.3071L18.1405 20.3694L19.7946 1.74866H11.0986" fill="#EF652A"/>
<path d="M11.0985 9.83023H7.55392L7.31762 7.08911H11.0985V4.4425H4.38745L5.09636 12.5241H11.0985V9.83023ZM11.0512 16.7776L8.07379 15.9741L7.88475 13.8474H5.23814L5.56897 18.0536L11.0512 19.5659V16.7776Z" fill="#EBEBEB"/>
<path d="M11.0513 9.83023V12.5241H14.3595L14.0287 15.9741L11.0513 16.7776V19.5659L16.5335 18.0536L17.2897 9.83023H11.0513ZM11.0513 4.4425V7.08911H17.526L17.7623 4.4425H11.0513Z" fill="white"/>
</svg>
